<?xml version="1.0" encoding="utf-8"?>
<!-- Generator: Adobe Illustrator 22.1.0, SVG Export Plug-In . SVG Version: 6.00 Build 0)  -->
<svg version="1.1" id="Layer_1" xmlns="http://www.w3.org/2000/svg" xmlns:xlink="http://www.w3.org/1999/xlink" x="0px" y="0px"
	 viewBox="0 0 337.1 318.1" enable-background="new 0 0 337.1 318.1" xml:space="preserve">
<path fill="none" d="M264.9,196.7c0,0-0.3-2-0.5-1.9l-35.6,3.5c-2.8,0.3-5,2.5-5.2,5.4l-1,14l-27.6,2l-1.8-12.7
	c-0.4-2.8-2.9-4.9-5.8-4.9h-37.6c-2.9,0-5.3,2.1-5.8,4.9l-1.8,12.7l-27.6-2l-1-14c-0.2-2.8-2.4-5.1-5.2-5.4l-35.7-3.5
	c-0.1,0-0.3,1.9-0.5,1.9l-0.1,7.7l30.2,4.9l1,14.2c0.2,2.9,2.5,5.2,5.4,5.4l38,2.7h0.4c2.9,0,5.3-2.1,5.8-4.9l1.9-13.1h27.6
	l1.9,13.1c0.4,2.8,2.9,4.9,5.8,4.9h0.4l38-2.7c2.9-0.2,5.2-2.5,5.4-5.4l1-14.2l30.2-4.9L264.9,196.7z"/>
<path fill="none" stroke="#F4F4F4" stroke-miterlimit="10" d="M72.1,138.5v58.1h0.3l35.7,3.5c1.8,0.1,3.3,1.7,3.5,3.5l1.1,15.7
	l31.1,2.2l2.1-14.6c0.3-1.8,1.9-3.3,3.8-3.3h37.7c1.9,0,3.5,1.4,3.8,3.3l2.1,14.6l31.1-2.2l1.1-15.7c0.1-1.8,1.6-3.4,3.5-3.5
	l35.6-3.5h0.3v-58.1h0.1c4.7-6.1,9.1-12.4,13.3-19.1c-5.5-9.5-12.4-18-19.6-25.8c-6.8,3.4-13.3,7.2-19.5,11.4
	c-3.1-3.1-6.6-5.6-10-8.3c-3.4-2.7-7.2-4.7-10.8-7c1.1-8,1.6-15.9,1.8-24.1c-9.3-4.7-19.2-7.8-29.3-10c-4,6.7-7.7,14-10.9,21.1
	c-3.8-0.7-7.6-0.9-11.4-0.9h-0.1c-3.8,0.1-7.6,0.3-11.4,0.9c-3.2-7.2-6.9-14.4-10.9-21.1c-10,2.2-19.9,5.3-29.3,10
	c0.2,8.2,0.7,16.1,1.8,24.1c-3.6,2.3-7.4,4.3-10.8,7c-3.4,2.7-6.9,5.2-10,8.3c-6.2-4.1-12.8-8-19.5-11.4
	c-7.3,7.8-14.1,16.3-19.6,25.8C63.1,126.2,67.4,132.5,72.1,138.5L72.1,138.5z"/>
<path fill="none" stroke="#F4F4F4" stroke-miterlimit="10" d="M232.9,207.4l-1.1,15.8c-0.1,1.9-1.6,3.4-3.5,3.5l-38,2.7H190
	c-1.9,0-3.5-1.4-3.8-3.3l-2.1-14.8h-31l-2.1,14.8c-0.3,2-2.1,3.4-4.1,3.3l-38-2.7c-1.9-0.1-3.4-1.6-3.5-3.5l-1.1-15.8l-32.1-3.1
	c0,3.5,0.1,7.2,0.1,8c0,33.8,42.9,50.2,96.3,50.3h0.1c53.1-0.1,96-16.4,96-50.3c0-0.7,0.1-4.5,0.1-8L232.9,207.4z"/>
<path fill="none" stroke="#F4F4F4" stroke-miterlimit="10" d="M139.4,162.1c0,11.9-9.6,21.5-21.5,21.5s-21.5-9.6-21.5-21.5
	s9.6-21.5,21.5-21.5C129.8,140.7,139.4,150.3,139.4,162.1"/>
<path fill="none" stroke="#F4F4F4" stroke-miterlimit="10" d="M134.3,163.4c0,7.9-6.4,14.3-14.3,14.3s-14.3-6.4-14.3-14.3
	c0-7.9,6.4-14.3,14.3-14.3C127.8,149.2,134.3,155.5,134.3,163.4"/>
<path fill="none" stroke="#F4F4F4" stroke-miterlimit="10" d="M168.5,185.6c-3.8,0-6.9-2.8-6.9-6.3v-19.8c0-3.5,3.1-6.3,6.9-6.3
	c3.8,0,6.9,2.8,6.9,6.3v19.8C175.4,182.8,172.3,185.6,168.5,185.6 M197.5,162.1c0,11.9,9.6,21.5,21.5,21.5s21.5-9.6,21.5-21.5
	c0-11.9-9.6-21.5-21.5-21.5C207.1,140.7,197.5,150.3,197.5,162.1"/>
<path fill="none" stroke="#F4F4F4" stroke-miterlimit="10" d="M202.7,163.4c0,7.9,6.4,14.3,14.3,14.3c7.9,0,14.3-6.4,14.3-14.3
	c0-7.9-6.4-14.3-14.3-14.3C209.1,149.2,202.7,155.5,202.7,163.4"/>
</svg>
