<svg xmlns="http://www.w3.org/2000/svg" viewBox="0 0 928 317">
  <path fill="#414042" d="M560.06518355 114.6274852c-5.4290568 0-9.9532708 2.4883177-13.68574735 7.4649531-3.73247655 4.9766354-5.54216215 11.9891671-5.54216215 21.0375951s1.8096856 15.94785435 5.31595145 20.8113844 8.1435852 7.2387424 13.91195805 7.2387424 10.4056922-2.4883177 13.91195805-7.35184775c3.6193712-4.86353005 5.31595145-11.87606175 5.31595145-20.92448975s-1.8096856-16.0609597-5.54216215-20.92448975c-3.6193712-4.86353005-8.25669055-7.35184775-13.68574735-7.35184775m-.11310535 89.69254255c-15.94785435 0-28.9549696-5.2028461-39.02134575-15.6085383s-15.04301155-25.67491445-15.04301155-45.6945614 5.08974075-35.17576385 15.26922225-45.58145605c10.1794815-10.29258685 23.2997021-15.49543295 39.3606618-15.49543295s29.06807495 5.08974075 38.9082404 15.26922225 14.81680085 25.5618091 14.81680085 46.1469828-5.08974075 35.9675013-15.1561169 46.03387745c-10.1794815 9.9532708-23.18659675 14.9299062-39.1344511 14.9299062M661.9158573 115.7786815v50.8974075c0 2.37521235.2262107 3.8455819.56552675 4.524214s1.3572642.9048428 3.05384445.9048428c6.22079425 0 10.97121895-2.37521235 14.2512741-7.0125317 3.28005515-4.63731935 4.86353005-12.4415885 4.86353005-23.18659675 0-10.8581136-1.69658025-17.8706453-4.9766354-21.15070045-3.3931605-3.28005515-8.70911195-4.9766354-15.94785435-4.9766354h-1.8096856zm-32.68744615 79.06063965V92.7051901c0-2.82763375.6786321-5.08974075 2.14900165-6.786321 1.47036955-1.5834749 3.28005515-2.4883177 5.54216215-2.4883177h28.38944285c18.096856 0 31.78260335 4.524214 41.05724205 13.68574735 9.38774405 9.048428 14.0250634 23.41280745 14.0250634 42.86692765 0 41.73587415-17.8706453 62.6603639-53.49883055 62.6603639h-28.9549696c-5.76837285 0-8.70911195-2.60142305-8.70911195-7.80426915M785.8658832 114.6274852c-5.4290568 0-10.06637615 2.4883177-13.68574735 7.4649531-3.73247655 4.9766354-5.54216215 11.9891671-5.54216215 21.0375951s1.8096856 15.94785435 5.31595145 20.8113844c3.50626585 4.86353005 8.1435852 7.2387424 13.91195805 7.2387424s10.4056922-2.4883177 13.91195805-7.35184775c3.6193712-4.86353005 5.31595145-11.87606175 5.31595145-20.92448975s-1.8096856-16.0609597-5.54216215-20.92448975c-3.6193712-4.86353005-8.25669055-7.35184775-13.68574735-7.35184775m-.11310535 89.69254255c-15.94785435 0-28.9549696-5.2028461-39.02134575-15.6085383s-15.04301155-25.67491445-15.04301155-45.6945614S736.7781613 107.8411642 746.9576428 97.435472c10.1794815-10.29258685 23.2997021-15.49543295 39.3606618-15.49543295s29.06807495 5.08974075 38.9082404 15.26922225 14.81680085 25.5618091 14.81680085 46.1469828-5.08974075 35.9675013-15.1561169 46.03387745c-10.06637615 9.9532708-23.18659675 14.9299062-39.1344511 14.9299062M903.4739342 199.9460172c0 2.262107-5.6552675 3.3931605-16.85269715 3.3931605s-16.85269715-1.1310535-16.85269715-3.3931605v-85.5076446h-20.47206835c-1.92279095 0-3.28005515-2.60142305-4.0717926-7.80426915-.33931605-2.4883177-.4524214-5.08974075-.4524214-7.6911638s.11310535-5.2028461.4524214-7.6911638c.79173745-5.2028461 2.14900165-7.80426915 4.0717926-7.80426915h74.08400425c1.92279095 0 3.28005515 2.60142305 4.0717926 7.80426915.33931605 2.4883177.4524214 5.08974075.4524214 7.6911638s-.2262107 5.2028461-.4524214 7.6911638c-.79173745 5.2028461-2.14900165 7.80426915-4.0717926 7.80426915h-19.9065416v85.5076446zM475.84354845 139.4570496c-9.16153335-.11310535-19.6803309 1.8096856-19.6803309 1.8096856v17.8706453h10.51879755l-.11310535 8.03047985c0 2.9407391-2.9407391 4.41110865-8.8222173 4.41110865s-10.97121895-2.4883177-15.49543295-7.4649531c-4.524214-4.9766354-6.67321565-12.2153778-6.67321565-21.7162272 0-9.5008494 2.14900165-16.62648645 6.5601103-21.15070045s10.06637615-6.786321 17.07890785-6.786321c2.9407391 0 5.99458355.4524214 9.16153335 1.47036955 3.1669498 1.01794815 5.31595145 1.92279095 6.44700495 2.7145284 1.1310535.9048428 2.14900165 1.24415885 3.05384445 1.24415885 1.01794815 0 2.4883177-1.1310535 4.63731935-3.3931605s4.0717926-5.6552675 5.76837285-10.29258685c1.69658025-4.63731935 2.60142305-8.1435852 2.60142305-10.6319029 0-2.4883177 0-4.18489795-.11310535-5.08974075-2.37521235-2.60142305-6.786321-4.63731935-13.23332595-6.22079425s-13.572642-2.262107-21.4900165-2.262107c-17.53132925 0-31.10397125 5.54216215-41.05724205 16.5133811-9.84016545 10.97121895-14.81680085 25.3355984-14.81680085 42.86692765 0 20.69827905 5.08974075 36.30681735 15.1561169 46.93872025s23.41280745 15.94785435 39.8130832 15.94785435c8.8222173 0 16.7395918-.79173745 23.5259128-2.262107 6.89942635-1.5834749 11.42364035-3.05384445 13.68574735-4.63731935l.6786321-53.27261985c.11310535-3.05384445-8.03047985-4.524214-17.1920132-4.63731935"/>
  <path fill="#6D6E71" d="M439.87684045 274.09392365c-.9048428 1.92279095-2.7145284 3.73247655-5.2028461 5.31595145s-5.76837285 2.37521235-9.61395475 2.37521235c-5.08974075 0-9.2746387-1.5834749-12.4415885-4.86353005-3.1669498-3.28005515-4.7504247-7.9173745-4.7504247-14.0250634v-15.3823276c0-5.99458355 1.47036955-10.6319029 4.41110865-13.7988527 3.05384445-3.1669498 7.0125317-4.7504247 11.9891671-4.7504247 4.86353005 0 8.5960066 1.24415885 11.19742965 3.8455819 2.60142305 2.4883177 4.0717926 6.1076889 4.18489795 10.51879755l-.11310535.2262107h-3.8455819c-.11310535-3.50626585-1.1310535-6.1076889-3.05384445-8.03047985s-4.63731935-2.82763375-8.3697959-2.82763375-6.67321565 1.24415885-8.8222173 3.8455819c-2.14900165 2.4883177-3.28005515 6.22079425-3.28005515 10.97121895v15.3823276c0 4.9766354 1.1310535 8.8222173 3.50626585 11.42364035s5.4290568 3.95868725 9.38774405 3.95868725c2.9407391 0 5.2028461-.56552675 6.89942635-1.5834749s2.9407391-2.262107 3.6193712-3.73247655V259.5033335h-10.6319029v-3.73247655h14.9299062v18.3230667zM459.52153585 277.95398465c2.37521235 0 4.41110865-.6786321 6.22079425-2.0358963s3.05384445-3.05384445 3.8455819-5.2028461v-8.25669055h-6.786321c-2.82763375 0-5.2028461.79173745-6.89942635 2.4883177-1.69658025 1.5834749-2.60142305 3.6193712-2.60142305 6.1076889 0 2.0358963.56552675 3.73247655 1.5834749 4.9766354 1.1310535 1.24415885 2.60142305 1.92279095 4.63731935 1.92279095m10.74500825 3.05384445c-.2262107-1.3572642-.33931605-2.37521235-.4524214-3.28005515-.11310535-.79173745-.2262107-1.69658025-.2262107-2.4883177-1.1310535 1.92279095-2.60142305 3.50626585-4.524214 4.63731935-1.8096856 1.24415885-3.8455819 1.8096856-6.1076889 1.8096856-3.1669498 0-5.54216215-1.01794815-7.35184775-2.9407391-1.69658025-1.92279095-2.60142305-4.63731935-2.60142305-7.9173745 0-3.50626585 1.24415885-6.3338996 3.73247655-8.48290125 2.4883177-2.14900165 5.8814782-3.1669498 10.06637615-3.1669498h6.786321v-4.63731935c0-2.7145284-.6786321-4.86353005-2.0358963-6.3338996s-3.28005515-2.262107-5.76837285-2.262107c-2.262107 0-4.18489795.6786321-5.6552675 2.14900165s-2.14900165 3.28005515-2.14900165 5.31595145h-3.95868725v-.2262107c-.11310535-2.82763375 1.01794815-5.4290568 3.28005515-7.6911638s5.2028461-3.3931605 8.8222173-3.3931605c3.50626585 0 6.3338996 1.01794815 8.48290125 3.1669498s3.28005515 5.2028461 3.28005515 9.2746387v18.66238275c0 1.3572642.11310535 2.7145284.2262107 3.95868725.11310535 1.24415885.33931605 2.4883177.6786321 3.73247655l-4.524214.11310535zM487.1359922 242.93114495l.33931605 5.8814782c1.01794815-2.14900165 2.37521235-3.73247655 3.95868725-4.86353005 1.69658025-1.1310535 3.6193712-1.69658025 5.8814782-1.69658025s4.2980033.6786321 5.76837285 2.0358963c1.5834749 1.3572642 2.7145284 3.3931605 3.50626585 6.1076889.9048428-2.4883177 2.262107-4.524214 3.95868725-5.99458355s3.8455819-2.14900165 6.22079425-2.14900165c3.3931605 0 5.8814782 1.3572642 7.80426915 4.0717926 1.92279095 2.60142305 2.82763375 6.786321 2.82763375 12.4415885v22.28175395h-4.2980033v-22.3948593c0-4.63731935-.6786321-7.9173745-1.92279095-9.84016545-1.24415885-1.92279095-3.05384445-2.82763375-5.4290568-2.82763375-2.4883177 0-4.41110865 1.01794815-5.76837285 3.1669498s-2.262107 4.7504247-2.4883177 7.9173745v23.9783342h-4.18489795v-22.3948593c0-4.524214-.6786321-7.80426915-1.92279095-9.84016545-1.3572642-1.92279095-3.1669498-2.9407391-5.4290568-2.9407391s-4.0717926.6786321-5.31595145 2.0358963c-1.47036955 1.47036955-2.4883177 3.28005515-3.05384445 5.6552675v27.48460005h-4.18489795v-38.11650295h3.73247655zM548.6107898 245.9805664c-2.60142305 0-4.86353005 1.24415885-6.5601103 3.6193712-1.69658025 2.37521235-2.60142305 5.4290568-2.7145284 8.93532265h17.53132925V256.83868c0-3.1669498-.79173745-5.76837285-2.262107-7.80426915-1.3572642-2.0358963-3.3931605-3.05384445-5.99458355-3.05384445m.56552675 35.7412906c-4.0717926 0-7.4649531-1.5834749-10.06637615-4.63731935s-3.95868725-7.0125317-3.95868725-11.87606175v-6.22079425c0-4.86353005 1.3572642-8.8222173 3.95868725-11.9891671s5.76837285-4.7504247 9.5008494-4.7504247c3.95868725 0 7.12563705 1.47036955 9.2746387 4.2980033 2.262107 2.82763375 3.28005515 6.67321565 3.28005515 11.42364035v4.18489795H539.3361511v3.1669498c0 3.73247655.9048428 6.786321 2.60142305 9.16153335 1.8096856 2.4883177 4.18489795 3.73247655 7.12563705 3.73247655 2.0358963 0 3.8455819-.33931605 5.4290568-1.1310535 1.47036955-.79173745 2.82763375-1.8096856 3.8455819-3.1669498l1.69658025 3.05384445c-1.1310535 1.47036955-2.60142305 2.60142305-4.41110865 3.50626585-1.69658025.79173745-3.8455819 1.24415885-6.44700495 1.24415885M595.51837085 245.9805664c-2.7145284 0-4.86353005 1.24415885-6.5601103 3.6193712s-2.60142305 5.4290568-2.7145284 8.93532265h17.6444346V256.83868c0-3.1669498-.79173745-5.76837285-2.262107-7.80426915-1.3572642-2.0358963-3.3931605-3.05384445-6.1076889-3.05384445m.6786321 35.7412906c-4.0717926 0-7.4649531-1.5834749-10.06637615-4.63731935s-3.95868725-7.0125317-3.95868725-11.87606175v-6.22079425c0-4.86353005 1.3572642-8.8222173 3.95868725-11.9891671s5.76837285-4.7504247 9.5008494-4.7504247c3.95868725 0 7.12563705 1.47036955 9.2746387 4.2980033 2.262107 2.82763375 3.28005515 6.67321565 3.28005515 11.42364035v4.18489795H586.3568375v3.1669498c0 3.73247655.9048428 6.786321 2.60142305 9.16153335 1.69658025 2.4883177 4.18489795 3.73247655 7.12563705 3.73247655 2.0358963 0 3.8455819-.33931605 5.4290568-1.1310535 1.47036955-.79173745 2.82763375-1.8096856 3.95868725-3.1669498l1.69658025 3.05384445c-1.1310535 1.47036955-2.60142305 2.60142305-4.41110865 3.50626585-1.8096856.79173745-4.0717926 1.24415885-6.5601103 1.24415885M619.3492444 242.93114495l.33931605 6.3338996c1.01794815-2.262107 2.37521235-3.95868725 4.0717926-5.2028461 1.69658025-1.24415885 3.6193712-1.8096856 5.8814782-1.8096856 3.3931605 0 5.99458355 1.24415885 7.80426915 3.8455819 1.8096856 2.4883177 2.7145284 6.44700495 2.7145284 11.7629564v23.2997021h-4.2980033v-23.2997021c0-4.41110865-.6786321-7.35184775-1.92279095-9.16153335-1.24415885-1.8096856-3.1669498-2.60142305-5.54216215-2.60142305-2.14900165 0-3.95868725.6786321-5.4290568 2.14900165s-2.60142305 3.28005515-3.28005515 5.6552675v27.25838935h-4.18489795V243.0442503l3.8455819-.11310535zM652.6707503 265.26922605c0 3.8455819.6786321 6.89942635 2.262107 9.2746387 1.47036955 2.262107 3.73247655 3.50626585 6.67321565 3.50626585 2.0358963 0 3.73247655-.56552675 5.2028461-1.69658025 1.3572642-1.1310535 2.4883177-2.7145284 3.3931605-4.63731935v-18.88859345c-.79173745-2.0358963-1.92279095-3.6193712-3.28005515-4.9766354-1.3572642-1.24415885-3.05384445-1.92279095-5.2028461-1.92279095-2.9407391 0-5.2028461 1.24415885-6.67321565 3.8455819s-2.262107 5.99458355-2.262107 10.1794815l-.11310535 5.31595145zm-4.2980033-5.2028461c0-5.4290568 1.1310535-9.7270601 3.28005515-13.00711525s5.2028461-4.86353005 9.048428-4.86353005c2.14900165 0 4.0717926.56552675 5.6552675 1.5834749s2.9407391 2.4883177 3.95868725 4.41110865l.4524214-5.31595145h3.6193712v38.11650295c0 4.86353005-1.1310535 8.70911195-3.3931605 11.310535-2.262107 2.7145284-5.54216215 4.0717926-9.7270601 4.0717926-1.47036955 0-3.1669498-.2262107-4.86353005-.6786321-1.69658025-.4524214-3.28005515-1.01794815-4.63731935-1.8096856l1.1310535-3.73247655c1.1310535.79173745 2.37521235 1.3572642 3.8455819 1.69658025 1.3572642.4524214 2.82763375.56552675 4.41110865.56552675 3.05384445 0 5.31595145-1.01794815 6.67321565-2.9407391 1.47036955-1.92279095 2.14900165-4.86353005 2.14900165-8.5960066V276.240445c-1.1310535 1.69658025-2.37521235 3.05384445-3.95868725 3.95868725s-3.3931605 1.3572642-5.4290568 1.3572642c-3.8455819 0-6.786321-1.47036955-9.048428-4.524214-2.14900165-2.9407391-3.28005515-7.0125317-3.28005515-11.9891671l.11310535-4.9766354zM688.6 281h-4.3v-38.1h4.3V281zm0-48.9h-4.3v-6h4.3v6zM702.28452345 242.93114495l.33931605 6.3338996c1.01794815-2.262107 2.37521235-3.95868725 4.0717926-5.2028461s3.6193712-1.8096856 5.8814782-1.8096856c3.3931605 0 5.99458355 1.24415885 7.80426915 3.8455819 1.8096856 2.4883177 2.7145284 6.44700495 2.7145284 11.7629564v23.2997021h-4.2980033v-23.2997021c0-4.41110865-.6786321-7.35184775-1.92279095-9.16153335s-3.1669498-2.60142305-5.54216215-2.60142305c-2.14900165 0-3.95868725.6786321-5.4290568 2.14900165s-2.60142305 3.28005515-3.28005515 5.6552675v27.25838935h-4.18489795V243.0442503l3.8455819-.11310535zM744.358361 245.9805664c-2.7145284 0-4.86353005 1.24415885-6.5601103 3.6193712s-2.60142305 5.4290568-2.7145284 8.93532265h17.53132925V256.83868c0-3.1669498-.6786321-5.76837285-2.262107-7.80426915-1.24415885-2.0358963-3.28005515-3.05384445-5.99458355-3.05384445m.6786321 35.7412906c-4.0717926 0-7.4649531-1.5834749-10.06637615-4.63731935-2.60142305-3.05384445-3.95868725-7.0125317-3.95868725-11.87606175v-6.22079425c0-4.86353005 1.3572642-8.8222173 3.95868725-11.9891671s5.76837285-4.7504247 9.5008494-4.7504247c3.95868725 0 7.12563705 1.47036955 9.2746387 4.2980033 2.14900165 2.82763375 3.28005515 6.67321565 3.28005515 11.42364035v4.18489795h-21.82933255v3.1669498c0 3.73247655.9048428 6.786321 2.60142305 9.16153335 1.8096856 2.4883177 4.18489795 3.73247655 7.12563705 3.73247655 2.0358963 0 3.8455819-.33931605 5.4290568-1.1310535 1.47036955-.79173745 2.82763375-1.8096856 3.95868725-3.1669498l1.69658025 3.05384445c-1.1310535 1.47036955-2.60142305 2.60142305-4.41110865 3.50626585-1.8096856.79173745-4.0717926 1.24415885-6.5601103 1.24415885"/>
  <path fill="#FFF" d="M315.66985455 216.04090935s-.4524214-3.05384445-.79173745-2.9407391l-54.5167787 5.31595145c-4.2980033.4524214-7.6911638 3.8455819-8.03047985 8.25669055l-1.47036955 21.4900165-42.18829555 3.05384445-2.82763375-19.4541202c-.6786321-4.2980033-4.41110865-7.57805845-8.8222173-7.57805845h-57.57062315c-4.41110865 0-8.1435852 3.28005515-8.8222173 7.57805845l-2.82763375 19.4541202-42.18829555-3.05384445-1.47036955-21.4900165c-.33931605-4.2980033-3.73247655-7.80426915-8.03047985-8.25669055l-54.62988405-5.31595145c-.2262107 0-.4524214 2.9407391-.79173745 2.9407391l-.11310535 11.7629564 46.26008815 7.4649531 1.47036955 21.7162272c.33931605 4.41110865 3.8455819 7.9173745 8.25669055 8.25669055l58.1361499 4.18489795h.6786321c4.41110865 0 8.1435852-3.28005515 8.8222173-7.57805845l2.9407391-20.01964695h42.18829555l2.9407391 20.01964695c.6786321 4.2980033 4.41110865 7.57805845 8.8222173 7.57805845h.6786321l58.1361499-4.18489795c4.41110865-.33931605 7.9173745-3.8455819 8.25669055-8.25669055l1.47036955-21.7162272 46.26008815-7.4649531-.2262107-11.7629564z"/>
  <path fill="#478CBF" d="M20.487051 126.96026705v89.01391045h.4524214l54.62988405 5.31595145c2.82763375.2262107 5.08974075 2.60142305 5.31595145 5.4290568l1.69658025 24.09143955 47.61735235 3.3931605 3.28005515-22.28175395c.4524214-2.82763375 2.9407391-4.9766354 5.76837285-4.9766354h57.6837285c2.9407391 0 5.4290568 2.14900165 5.76837285 4.9766354l3.28005515 22.28175395 47.61735235-3.3931605 1.69658025-24.09143955c.2262107-2.82763375 2.4883177-5.2028461 5.31595145-5.4290568l54.5167787-5.31595145h.4524214v-89.01391045h.2262107c7.2387424-9.2746387 13.91195805-19.0016988 20.358963-29.29428565-8.48290125-14.4774848-19.0016988-27.48460005-30.0860231-39.47376715-10.4056922 5.2028461-20.358963 11.0843243-29.8598124 17.4182239-4.7504247-4.7504247-10.06637615-8.5960066-15.3823276-12.6677992-5.2028461-4.18489795-10.97121895-7.2387424-16.5133811-10.74500825 1.69658025-12.2153778 2.4883177-24.31765025 2.82763375-36.8723441-14.2512741-7.12563705-29.407391-11.87606175-44.7897186-15.3823276-6.1076889 10.29258685-11.7629564 21.4900165-16.62648645 32.3481301-5.76837285-1.01794815-11.64985105-1.3572642-17.4182239-1.3572642h-.2262107c-5.8814782.11310535-11.64985105.4524214-17.4182239 1.3572642C145.8077788 21.31987015 140.1525113 10.23554585 134.0448224-.057041c-15.3823276 3.3931605-30.5384445 8.1435852-44.7897186 15.3823276.33931605 12.55469385 1.1310535 24.6569663 2.82763375 36.8723441-5.54216215 3.50626585-11.310535 6.5601103-16.5133811 10.74500825-5.2028461 4.0717926-10.6319029 7.9173745-15.3823276 12.6677992-9.5008494-6.3338996-19.56722555-12.2153778-29.8598124-17.4182239C19.1297868 70.18138135 8.7240946 83.1884966.24119335 97.6659814c6.44700495 10.4056922 13.1202206 20.1327523 20.358963 29.29428565H20.487051z"/>
  <path fill="#478CBF" d="M266.72667675 232.5003436l-1.69658025 24.2045449c-.2262107 2.9407391-2.4883177 5.2028461-5.4290568 5.4290568l-58.1361499 4.18489795h-.4524214c-2.9407391 0-5.4290568-2.14900165-5.76837285-4.9766354l-3.28005515-22.62107h-47.39114165l-3.28005515 22.62107c-.4524214 3.05384445-3.1669498 5.2028461-6.22079425 4.9766354l-58.1361499-4.18489795c-2.9407391-.2262107-5.2028461-2.4883177-5.4290568-5.4290568l-1.69658025-24.2045449-49.0877219-4.7504247c0 5.31595145.11310535 11.0843243.11310535 12.2153778 0 51.8022503 65.71420835 76.79853265 147.4893764 77.02474335h.2262107c81.32274665-.2262107 147.036955-25.1093877 147.036955-77.02474335 0-1.1310535.11310535-6.89942635.11310535-12.2153778l-48.97461655 4.7504247z"/>
  <path fill="#FFF" d="M123.5829208 163.0785377c0 18.20996135-14.7036955 32.91365685-32.91365685 32.91365685S57.7556071 181.28849905 57.7556071 163.0785377s14.7036955-32.91365685 32.91365685-32.91365685c18.20996135.11310535 32.91365685 14.81680085 32.91365685 32.91365685"/>
  <path fill="#414042" d="M115.72367985 165.12144355c0 12.10227245-9.7270601 21.82933255-21.82933255 21.82933255s-21.82933255-9.7270601-21.82933255-21.82933255S81.79207485 143.292111 93.8943473 143.292111c11.9891671 0 21.82933255 9.7270601 21.82933255 21.82933255"/>
  <path fill="#FFF" d="M168.14145045 199.0464923c-5.8814782 0-10.6319029-4.2980033-10.6319029-9.61395475v-30.3122338c0-5.31595145 4.7504247-9.61395475 10.6319029-9.61395475s10.6319029 4.2980033 10.6319029 9.61395475v30.3122338c-.11310535 5.31595145-4.86353005 9.61395475-10.6319029 9.61395475M212.59095475 163.0785377c0 18.20996135 14.7036955 32.91365685 32.91365685 32.91365685s32.91365685-14.7036955 32.91365685-32.91365685-14.7036955-32.91365685-32.91365685-32.91365685c-18.20996135.11310535-32.91365685 14.81680085-32.91365685 32.91365685"/>
  <path fill="#414042" d="M220.4516657 165.12144355c0 12.10227245 9.7270601 21.82933255 21.82933255 21.82933255s21.82933255-9.7270601 21.82933255-21.82933255-9.7270601-21.82933255-21.82933255-21.82933255c-11.9891671 0-21.82933255 9.7270601-21.82933255 21.82933255"/>
</svg>